{"title":"Man Of Steel 2013 BRRip XviD - TODE","uid":9056275,"size":1511888263,"categoryP":"video","categoryS":"movies","magnet":"?xt=urn:btih:941b6c9e507aa3213989efe1cc45f99efab09ba4&amp;dn=Man+Of+Steel+2013+BRRip+XviD+-+TODE&amp;tr=udp%3A%2F%2Ftracker.openbittorrent.com%3A80&amp;tr=udp%3A%2F%2Fopen.demonii.com%3A1337&amp;tr=udp%3A%2F%2Ftracker.coppersurfer.tk%3A6969&amp;tr=udp%3A%2F%2Fexodus.desync.com%3A6969","seeders":3,"leechers":0,"uploader":"xxxlavalxxx","files":-1,"time":1381958304,"description":"[IMG]http://i.imgur.com/9wyl64i.jpg[/IMG]\n\n &lt;a href=&quot;\nhttp://www.imdb.com/title/tt0770828/&quot; rel=&quot;nofollow&quot; target=&quot;_NEW&quot;&gt;\nhttp://www.imdb.com/title/tt0770828/&lt;/a&gt;\n\n\nA young boy learns that he has extraordinary powers and is not of this Earth. As a young man, he journeys to discover where he came from and what he was sent here to do. But the hero in him must emerge if he is to save the world from annihilation and become the symbol of hope for all mankind.\n\n\n\nDirector:\nZack Snyder\n\nWriters:\nDavid S. Goyer (screenplay), David S. Goyer (story)\n\nStars:\nHenry Cavill, Amy Adams, Michael Shannon\n\nGenres:\nAction | Adventure | Fantasy | Sci-Fi\n\nCountry:\nUSA | Canada | UK\n\nLanguage:\nEnglish\n\n\n\nFormat                                   : AVI\nFormat/Info                              : Audio Video Interleave\nFile size                                : 1.41 GiB\nDuration                                 : 2h 23mn\nOverall bit rate                         : 1 409 Kbps\n\nVideo\nID                                       : 0\nFormat                                   : MPEG-4 Visual\nFormat profile                           : Advanced Simple@L5\nFormat settings, BVOP                    : 2\nFormat settings, QPel                    : No\nFormat settings, GMC                     : No warppoints\nFormat settings, Matrix                  : Default (H.263)\nCodec ID                                 : XVID\nCodec ID/Hint                            : XviD\nDuration                                 : 2h 23mn\nBit rate                                 : 1 275 Kbps\nWidth                                    : 720 pixels\nHeight                                   : 304 pixels\nDisplay aspect ratio                     : 2.35:1\nFrame rate                               : 23.976 fps\nColor space                              : YUV\nChroma subsampling                       : 4:2:0\nBit depth                                : 8 bits\nScan type                                : Progressive\nCompression mode                         : Lossy\nBits/(Pixel*Frame)                       : 0.243\nStream size                              : 1.27 GiB (91%)\nWriting library                          : XviD 1.2.1 (UTC 2008-12-04)\n\nAudio\nID                                       : 1\nFormat                                   : MPEG Audio\nFormat version                           : Version 1\nFormat profile                           : Layer 3\nMode                                     : Joint stereo\nMode extension                           : MS Stereo\nCodec ID                                 : 55\nCodec ID/Hint                            : MP3\nDuration                                 : 2h 23mn\nBit rate mode                            : Constant\nBit rate                                 : 128 Kbps\nChannel(s)                               : 2 channels\nSampling rate                            : 48.0 KHz\nCompression mode                         : Lossy\nStream size                              : 131 MiB (9%)\nAlignment                                : Aligned on interleaves\nInterleave, duration                     : 167 ms (4.00 video frames)\nInterleave, preload duration             : 216 ms\nTitle                                    : T2_Audio - English\nWriting library                          : LAME3.99r\nEncoding settings                        : -m j -V 4 -q 2 -lowpass 17 -b 128\n\n\n\n\n[IMG]http://i.imgur.com/Stb5D0h.jpg[/IMG]\n[IMG]http://i.imgur.com/2b1bGWd.jpg[/IMG]\n[IMG]http://i.imgur.com/m9KZLKr.jpg[/IMG]\n[IMG]http://i.imgur.com/6eTI0Sb.jpg[/IMG]\n[IMG]http://i.imgur.com/nYBotsS.jpg[/IMG]\n[IMG]http://i.imgur.com/4wrFiUM.jpg[/IMG]\n","torrent":{"xt":"urn:btih:941b6c9e507aa3213989efe1cc45f99efab09ba4","amp;dn":"Man+Of+Steel+2013+BRRip+XviD+-+TODE","amp;tr":["udp%3A%2F%2Ftracker.openbittorrent.com%3A80","udp%3A%2F%2Fopen.demonii.com%3A1337","udp%3A%2F%2Ftracker.coppersurfer.tk%3A6969","udp%3A%2F%2Fexodus.desync.com%3A6969"],"infoHash":"941b6c9e507aa3213989efe1cc45f99efab09ba4","infoHashBuffer":{"type":"Buffer","data":[148,27,108,158,80,122,163,33,57,137,239,225,204,69,249,158,250,176,155,164]},"announce":[],"urlList":[]}}